<?xml version="1.0" standalone="no"?>
<!DOCTYPE svg PUBLIC "-//W3C//DTD SVG 20010904//EN"
 "http://www.w3.org/TR/2001/REC-SVG-20010904/DTD/svg10.dtd">
<svg version="1.0" xmlns="http://www.w3.org/2000/svg"
 width="260.000000pt" height="260.000000pt" viewBox="0 0 260.000000 260.000000"
 preserveAspectRatio="xMidYMid meet">
<metadata>
Created by potrace 1.16, written by Peter Selinger 2001-2019
</metadata>
<g transform="translate(0.000000,260.000000) scale(0.100000,-0.100000)"
fill="#000000" stroke="none">
<path d="M1075 2584 c-263 -46 -502 -172 -695 -364 -251 -252 -380 -564 -380
-919 0 -359 128 -668 380 -920 199 -199 434 -320 710 -366 188 -32 456 -10
630 52 288 101 520 284 676 533 36 56 94 164 94 172 0 2 -89 4 -198 4 -159 1
-216 6 -296 23 l-98 21 -88 -84 c-180 -171 -415 -291 -651 -332 -127 -22 -341
-15 -454 15 -171 45 -325 153 -379 264 -98 204 -20 415 192 521 130 66 357 91
582 66 129 -14 116 -20 155 80 13 36 42 112 65 170 78 206 199 374 314 441 60
34 144 41 167 13 12 -14 8 -20 -26 -48 -61 -48 -94 -85 -121 -138 -28 -55 -31
-83 -9 -74 36 13 136 89 159 119 85 111 71 221 -34 275 -38 20 -57 23 -125 20
-95 -4 -167 -34 -202 -88 -30 -43 -29 -75 2 -102 31 -27 31 -37 1 -96 -32 -64
-97 -127 -152 -148 -38 -15 -51 -15 -87 -4 -52 15 -103 68 -117 122 -37 136
97 340 281 428 112 53 195 73 304 73 157 0 276 -44 372 -139 81 -80 104 -194
65 -322 -36 -114 -107 -190 -239 -256 l-73 -36 89 -88 c72 -71 92 -98 110
-147 26 -70 30 -170 11 -259 -13 -54 -12 -60 4 -72 31 -22 185 -53 329 -65
151 -12 203 -8 211 19 43 140 58 403 31 563 -46 275 -167 510 -366 709 -195
195 -439 322 -699 365 -117 18 -336 18 -445 -1z m902 -1846 c29 -27 29 -65 1
-95 -27 -29 -65 -29 -95 -1 -29 27 -29 65 -1 95 27 29 65 29 95 1z"/>
<path d="M1503 1413 c-45 -108 -77 -213 -68 -221 18 -15 224 -74 239 -69 22 9
49 112 43 163 -9 81 -76 150 -163 168 -30 7 -32 5 -51 -41z"/>
<path d="M921 1029 c-166 -29 -237 -166 -125 -240 86 -56 207 21 281 179 14
29 23 56 20 59 -11 10 -123 12 -176 2z"/>
<path d="M1281 906 c-27 -40 -83 -103 -123 -140 -71 -65 -72 -66 -38 -60 131
23 270 88 357 168 l56 51 -84 27 c-46 15 -92 27 -101 28 -11 0 -37 -29 -67
-74z"/>
</g>
</svg>
